<svg xmlns="http://www.w3.org/2000/svg" viewBox="0 0 741.46 299.57"><path fill="#407569" d="M283.82 176.65a23.6 23.6 0 0 0-16.11-11.04 25.91 25.91 0 0 0-17.48 3.01 23.63 23.63 0 0 0-6.88 5.81 22.48 22.48 0 0 0-4.97 17.02 25.77 25.77 0 0 0 15.75 20.49 24.1 24.1 0 0 0 9.18 1.84 23.78 23.78 0 0 0 18.05-8.47 23.75 23.75 0 0 0 4.95-9.3 24.42 24.42 0 0 0-2.49-19.37Z"/><path fill="#559482" d="M224.98 226.38a21.73 21.73 0 0 0-15.45 5.02l-.34.29a21.7 21.7 0 0 0-7.17 14.6 24.05 24.05 0 0 0 4.25 16.07 22.06 22.06 0 0 0 15.38 9.35l.24.03a22.8 22.8 0 0 0 17.48-5.56 22.84 22.84 0 0 0 7.98-16.52v-.26a22.06 22.06 0 0 0-7.07-16.54 24 24 0 0 0-15.32-6.48Z"/><path fill="#e5dcc1" d="M171.54 260.92a22.25 22.25 0 0 0-6.53-3.15 20.1 20.1 0 0 0-7.71-.58l-.2.02a18.4 18.4 0 0 0-7.58 2.74 20.62 20.62 0 0 0-5.67 5.07 22.94 22.94 0 0 0-4.77 14.75 20.33 20.33 0 0 0 7.35 15.02 21.38 21.38 0 0 0 7.49 3.98l.27.08a22.49 22.49 0 0 0 8.5.55c2.88-.31 5.68-1.3 8.64-3.07a19.91 19.91 0 0 0 6.28-6.02 20.28 20.28 0 0 0 2.82-16.43 22.61 22.61 0 0 0-8.89-12.95Z"/><path fill="#1d5d9e" d="M98.01 250.35a16.99 16.99 0 0 0-3.47-1.13 16.55 16.55 0 0 0-3.51-.46 19.4 19.4 0 0 0-6.91 1.12 20.85 20.85 0 0 0-11.23 9.13 18.8 18.8 0 0 0-1.82 15.26 19.2 19.2 0 0 0 3.94 6.89 21.6 21.6 0 0 0 2.92 2.73l.19.14c1.09.78 2.29 1.47 3.49 2.02a19.51 19.51 0 0 0 15.92.35 18.85 18.85 0 0 0 10.39-11.38 21.01 21.01 0 0 0-.39-14.35 18.53 18.53 0 0 0-9.52-10.31Z"/><path fill="#eebaad" d="m51.52 212.14-.09-.14a16.84 16.84 0 0 0-10.44-7.13 19.19 19.19 0 0 0-13.22 1.51 17.15 17.15 0 0 0-8.95 10.94 17.81 17.81 0 0 0 2.35 14.21 17.32 17.32 0 0 0 5.39 5.48 17.76 17.76 0 0 0 6.74 2.66 17.24 17.24 0 0 0 13.55-3.64 19.08 19.08 0 0 0 6.84-11.37c.45-2.24.49-4.42.12-6.54a17.4 17.4 0 0 0-2.3-5.98Z"/><path fill="#df1316" d="M32.74 153.88c.09-3.74-1.42-7.4-4.41-10.63a17.67 17.67 0 0 0-10.98-5.37c-4.49-.46-8.77.93-12.01 3.87-3.32 2.89-5.21 7.17-5.34 12.04v.18c.13 4.87 2.02 9.15 5.29 12.02a15.3 15.3 0 0 0 12.05 3.9 17.78 17.78 0 0 0 11.02-5.42c2.95-3.19 4.46-6.85 4.37-10.59Z"/><path fill="#407569" d="M29.25 98.46a15.9 15.9 0 0 0 10.94 1.26c3.57-.8 6.52-2.8 8.55-5.83.9-1.44 1.52-3.07 1.86-4.87.29-1.65.25-3.43-.12-5.25a15.86 15.86 0 0 0-5.68-9.48 13.96 13.96 0 0 0-11.01-2.95 14.37 14.37 0 0 0-5.43 2.16 14 14 0 0 0-4.39 4.44c-2.28 3.41-3 7.68-1.97 11.74a13.85 13.85 0 0 0 7.25 8.79Z"/><path fill="#df1316" d="M86.23 51.68c1.5.52 3.08.82 4.6.77.76-.02 1.52-.12 2.26-.3.75-.15 1.5-.38 2.22-.71a12.1 12.1 0 0 0 6.12-6.71 14.41 14.41 0 0 0 .3-9.91 12.26 12.26 0 0 0-6.76-7.44 13.02 13.02 0 0 0-10.54.24c-.89.4-1.72.87-2.47 1.42a15 15 0 0 0-2.01 1.88 12.53 12.53 0 0 0-2.6 4.51 12.3 12.3 0 0 0 1.21 9.98 14.4 14.4 0 0 0 7.69 6.26Z"/><path fill="#1d5d9e" d="M145.23 54.78c3.35 2.1 7 3.41 10.86 3.89l.38.04c1.15.12 2.27.18 3.36.18 2.61 0 5.05-.34 7.38-1.01 3.1-.88 6.12-2.33 8.97-4.3l.19-.13a30.69 30.69 0 0 0 11.99-17.56c1.97-7.86.55-16.2-3.9-22.89a28.02 28.02 0 0 0-8.86-8.53l-.16-.1A29.28 29.28 0 0 0 163.73.25 30.72 30.72 0 0 0 152.1 1l-.55.15a29.24 29.24 0 0 0-10.26 5.43 28.52 28.52 0 0 0-10.42 21.1 31.22 31.22 0 0 0 6.52 20.13 28.73 28.73 0 0 0 7.8 6.97Z"/><path fill="#eebaad" d="m205.9 79.71.5.43a26.86 26.86 0 0 0 18.84 6.14 28.94 28.94 0 0 0 18.41-7.8 26.88 26.88 0 0 0 8.62-20.18v-.39a27.82 27.82 0 0 0-9.68-20.03 27.74 27.74 0 0 0-21.2-6.73l-.36.04a27.27 27.27 0 0 0-18.78 11.4 29.02 29.02 0 0 0-5.12 19.33 26.86 26.86 0 0 0 8.76 17.8Z"/><path fill="#df1316" d="M287.91 111.41a25.63 25.63 0 0 0-5.37-10.09 25.25 25.25 0 0 0-29.03-7.02 27.38 27.38 0 0 0-13.99 12.88l-.07.15a26.5 26.5 0 0 0-2.69 8.7c-.37 3.07-.13 6.24.73 9.55a25.42 25.42 0 0 0 12.01 15.03 27.72 27.72 0 0 0 18.5 3.15 25.2 25.2 0 0 0 17.19-11.74 26.19 26.19 0 0 0 3.48-9.76c.52-3.48.26-7.17-.75-10.85Z"/><path fill="#407569" d="M75.31 136.46a11.73 11.73 0 0 0 8 5.48c2.95.54 5.94.03 8.67-1.49a11.8 11.8 0 0 0 5.56-7c.38-1.48.49-2.95.33-4.33a12.76 12.76 0 0 0-7.82-10.17 11.92 11.92 0 0 0-4.55-.91 11.8 11.8 0 0 0-8.96 4.21 11.82 11.82 0 0 0-2.46 4.61 12.2 12.2 0 0 0 1.23 9.61Z"/><path fill="#559482" d="M104.51 111.78a10.8 10.8 0 0 0 7.67-2.49l.17-.14c2.1-1.9 3.33-4.41 3.56-7.24.27-2.82-.48-5.65-2.11-7.98a10.94 10.94 0 0 0-7.63-4.64h-.12a11.32 11.32 0 0 0-8.67 2.74 11.36 11.36 0 0 0-3.96 8.2v.13a10.93 10.93 0 0 0 3.51 8.21 11.99 11.99 0 0 0 7.6 3.22Z"/><path fill="#e5dcc1" d="M131.03 94.64a9.91 9.91 0 0 0 7.07 1.85h.1a9.4 9.4 0 0 0 3.76-1.37 10.02 10.02 0 0 0 2.81-2.52 11.38 11.38 0 0 0 2.36-7.32 10.04 10.04 0 0 0-3.65-7.45 10.5 10.5 0 0 0-3.72-1.97l-.14-.04a11.3 11.3 0 0 0-4.21-.27 10.63 10.63 0 0 0-7.41 4.51 10.07 10.07 0 0 0-1.4 8.15c.65 2.58 2.2 4.85 4.41 6.43Z"/><path fill="#1d5d9e" d="M167.51 99.89c.54.24 1.12.43 1.72.56a9.37 9.37 0 0 0 5.17-.33 10.3 10.3 0 0 0 5.57-4.53 9.32 9.32 0 0 0-1.05-10.99c-.43-.49-.92-.95-1.45-1.36l-.09-.07a10.35 10.35 0 0 0-5.87-1.93 9.37 9.37 0 0 0-8.93 6.41c-.78 2.31-.7 4.84.2 7.12a9.18 9.18 0 0 0 4.73 5.12Z"/><path fill="#eebaad" d="m190.59 118.85.04.07a8.36 8.36 0 0 0 5.18 3.54c2.21.54 4.54.27 6.56-.75a8.5 8.5 0 0 0 4.44-5.43 8.84 8.84 0 0 0-1.17-7.05 8.6 8.6 0 0 0-2.68-2.72 8.77 8.77 0 0 0-4.7-1.43c-1.94 0-3.81.66-5.37 1.91a9.4 9.4 0 0 0-3.39 5.64 8.9 8.9 0 0 0-.06 3.25 8.69 8.69 0 0 0 1.14 2.96Z"/><path fill="#df1316" d="M199.9 147.76a7.5 7.5 0 0 0 2.19 5.28 8.85 8.85 0 0 0 5.45 2.67 7.6 7.6 0 0 0 5.96-1.92 8.12 8.12 0 0 0 2.65-5.98v-.08a8.03 8.03 0 0 0-2.63-5.96 7.61 7.61 0 0 0-5.99-1.94c-2.07.21-4 1.16-5.47 2.69a7.45 7.45 0 0 0-2.17 5.25Z"/><path fill="#407569" d="M201.63 175.26a7.9 7.9 0 0 0-5.43-.63 6.82 6.82 0 0 0-4.24 2.89 6.84 6.84 0 0 0-.86 5.03 7.82 7.82 0 0 0 2.82 4.7 6.97 6.97 0 0 0 5.47 1.47 7.18 7.18 0 0 0 2.7-1.07 7.04 7.04 0 0 0 2.18-2.2 7.26 7.26 0 0 0 .98-5.82 6.9 6.9 0 0 0-3.6-4.36Z"/><path fill="#eebaad" d="M173.36 198.47a6.3 6.3 0 0 0-2.29-.38c-.38 0-.75.06-1.12.15-.37.08-.74.19-1.1.35a6 6 0 0 0-3.04 3.33 7.2 7.2 0 0 0-.15 4.92 6.09 6.09 0 0 0 3.36 3.69c1.55.65 3.48.71 5.23-.12.44-.2.85-.43 1.23-.7.37-.28.7-.6 1-.93a6.1 6.1 0 0 0 .69-7.19 7.1 7.1 0 0 0-3.82-3.1Z"/><path fill="#1d5d9e" d="M144.08 196.93a13.15 13.15 0 0 0-5.39-1.93l-.19-.02a13.26 13.26 0 0 0-5.33.41 15.28 15.28 0 0 0-4.45 2.13l-.09.07a15.23 15.23 0 0 0-5.95 8.71 14.3 14.3 0 0 0 1.93 11.36c1.12 1.7 2.6 3.13 4.39 4.23l.08.05a14.6 14.6 0 0 0 5.81 2.05c1.95.24 3.9.12 5.77-.37l.27-.08a14.15 14.15 0 0 0 10.26-13.16c.14-3.54-1-7.07-3.24-9.99a14.32 14.32 0 0 0-3.87-3.46Z"/><path fill="#eebaad" d="m113.97 184.56-.25-.22a13.3 13.3 0 0 0-8.53-3.07c-.27 0-.55 0-.82.02-3.4.16-6.64 1.53-9.14 3.87a13.33 13.33 0 0 0-4.28 10.01v.2c.16 3.86 1.9 7.47 4.81 9.94a13.78 13.78 0 0 0 10.52 3.34l.18-.02a13.5 13.5 0 0 0 9.32-5.66 14.36 14.36 0 0 0 2.54-9.59 13.32 13.32 0 0 0-4.35-8.83Z"/><path fill="#df1316" d="M73.28 168.83a12.75 12.75 0 0 0 2.66 5.01 12.52 12.52 0 0 0 14.4 3.48c3-1.23 5.47-3.5 6.94-6.39l.04-.07a13.05 13.05 0 0 0 1.33-4.32 11.97 11.97 0 0 0-2.65-9.11 12.58 12.58 0 0 0-3.67-3.09 13.82 13.82 0 0 0-9.18-1.57 12.5 12.5 0 0 0-10.26 10.67c-.26 1.73-.13 3.56.37 5.38Z"/><path fill="#1d5d9e" d="M144.46 132.54a17.25 17.25 0 1 0 0 34.5 17.25 17.25 0 0 0 0-34.5Z"/><path fill="#231f20" d="M361.96 107.57c10.32-1.47 16.95-3.39 16.95-11.35V25.45c0-3.98-1.47-5.01-4.86-5.01h-2.8c-12.53 0-22.41 4.28-24.62 9.58-1.33 3.39-7.22 2.8-6.49 0 1.48-4.72 2.65-10.32 3.54-18.58.29-3.24 1.77-2.95 4.57-2.65 8.7.88 13.12 1.18 42.31 1.18s37.45-.29 46.88-1.18c2.65-.3 5.16-.59 4.13 2.65a173.13 173.13 0 0 0-4.72 18.58c-.44 2.51-4.87 2.95-5.6 0-1.62-5.01-8.7-9.58-20.64-9.58h-3.54c-3.54 0-5.89 1.03-5.89 5.01v70.77c0 7.96 6.63 9.88 17.1 11.35 1.18.15.29 5.6-1.03 5.6h-54.4c-1.18 0-2.21-5.45-.88-5.6Zm132.4-1.91c-5.45 2.21-17.1 9.88-20.2 9.88-19.46 0-42.61-7.96-42.61-34.35 0-18.13 11.5-39.22 37.74-39.22 22.26 0 25.21 16.22 25.21 22.11 0 3.83-1.33 10.47-3.24 14.3l-40.54 1.18c3.1 16.51 16.22 23.59 28.31 23.59 1.33 0 7.67-.74 13.42-1.92 1.33-.29 2.65 4.13 1.91 4.42Zm-44.38-34.79 27.57-.88c1.47-9.29-4.13-17.4-13.71-17.4-10.32 0-13.71 7.81-13.86 18.28Zm48.96 10.02c0-17.69 11.5-38.92 40.99-38.92 8.99 0 20.35 2.8 19.02 7.52l-1.62 5.9c-3.54 14.15-11.21-2.8-25.36-2.8-9.73 0-13.71 8.99-13.71 19.17 0 19.61 15.18 31.4 24.77 31.4 1.33 0 6.49-.59 14.01-2.21 1.33-.29 2.8 4.28 2.06 4.57-5.31 2.65-16.07 10.02-19.17 10.02-17.69 0-40.99-8.99-40.99-34.65Z"/><path fill="#231f20" d="M558.85 108.02c4.42-.59 10.02-2.65 10.02-11.2V32.98c0-15.92-2.21-18.72-10.47-19.61-1.33-.15-.59-4.42.59-4.87l29.48-6.19a1.94 1.94 0 0 1 2.21 2.65c-2.36 9.14-2.8 27.86-2.8 39.66 0 3.69 2.06 5.01 4.27 4.28 7.52-2.51 14.89-6.93 23.59-6.93 14.74 0 19.02 11.06 19.02 20.05v34.79c0 8.55 5.75 10.61 10.02 11.2 1.18.15.15 5.16-.88 5.16h-36.12c-.88 0-1.62-5.01-.74-5.16 5.9-.89 8.7-3.83 8.7-11.2V70.86c0-12.38-3.84-15.63-14.3-15.63-5.9 0-13.56 1.62-13.56 5.46v36.12c0 6.78 3.54 10.32 10.17 11.2 1.03.15.15 5.16-1.03 5.16h-37.15c-1.18 0-2.21-5.01-1.03-5.16Zm-163.41 83.72v20.05c0 10.32 7.52 12.09 16.22 13.27 1.03.15.29 5.75-.89 5.75h-48.06c-1.18 0-2.07-5.6-.88-5.75 7.96-1.03 11.94-4.42 11.94-13.27v-64.28c0-9.73-5.01-12.53-11.94-14.45-1.18-.29-.44-5.9.88-5.75 5.6.74 11.94.89 17.25.89 12.53 0 22.11-.89 29.48-.89 24.33 0 43.49 8.55 43.49 31.55 0 25.8-24.62 37.59-57.5 32.88Zm0-44.23v36.27c23.15 2.95 34.2-3.98 34.2-21.38 0-14.74-8.84-26.39-24.77-26.39-7.67 0-9.44 2.8-9.44 11.5Zm58.89 49.69c0-21.38 15.48-37.59 37.15-37.59 20.49 0 36.42 14.3 36.42 36.12s-15.19 37.45-37.15 37.45c-20.49 0-36.42-14.3-36.42-35.97Zm54.7 6.34c0-19.17-8.99-33.76-22.26-33.76-6.34 0-13.57 3.83-13.57 19.17 0 19.46 8.99 34.06 22.11 34.06 6.49 0 13.71-3.83 13.71-19.46Z"/><path fill="#231f20" d="M527.66 225.65c4.42-.59 9.88-2.65 9.88-11.2v-63.1c0-16.36-2.21-19.46-11.21-20.34-1.33-.15-.59-4.42.59-4.57l30.22-6.49c1.18-.29 2.8.74 2.21 2.65-.88 4.72-2.8 14.74-2.8 34.65v57.2c0 8.55 5.31 10.61 9.73 11.2 1.18.15.15 5.16-1.03 5.16h-36.56c-1.18 0-2.21-5.01-1.03-5.16Z"/><path fill="#231f20" d="M564.18 225.65c4.57-.59 10.17-2.65 10.17-11.2v-30.81c0-9.29-2.36-11.35-9.73-12.24-1.33-.15-.59-4.57.59-4.87l28.75-6.63c1.47-.15 2.21.74 1.77 2.65a116.38 116.38 0 0 0-2.36 23.15v28.75c0 8.55 5.45 10.61 9.88 11.2 1.03.15.15 5.16-1.03 5.16h-37c-1.18 0-2.21-5.01-1.03-5.16Zm5.6-90.23c0-4.72 8.55-12.53 12.68-12.53s12.68 7.81 12.68 12.53-8.55 12.53-12.68 12.53-12.68-7.67-12.68-12.53Z"/><path fill="#231f20" d="M601.19 198.52c0-17.69 11.5-38.92 40.99-38.92 8.99 0 20.35 2.8 19.02 7.52l-1.62 5.9c-3.54 14.15-11.21-2.8-25.36-2.8-9.73 0-13.71 8.99-13.71 19.17 0 19.61 15.18 31.4 24.77 31.4 1.33 0 6.49-.59 14.01-2.21 1.33-.29 2.8 4.28 2.06 4.57-5.31 2.65-16.07 10.02-19.17 10.02-17.69 0-40.99-8.99-40.99-34.65Z"/><path fill="#231f20" d="M740.22 168.3c-4.13 1.18-8.25 5.46-12.53 15.04l-28.45 63.99c-4.86 10.61-16.07 12.09-21.08 12.09-8.55 0-12.53-4.57-14.89-10.76-2.8-8.11.59-4.72 11.5-4.72 9.88 0 17.84-2.36 22.41-12.53l-21.23-48.06c-4.57-10.32-8.26-14.3-12.53-15.04-1.62-.29-1.62-6.04.15-6.04h33.17c2.21 0 2.21 4.87.29 6.04-3.69 2.21-4.86 5.46-.44 15.04l10.76 24.47 10.47-24.18c4.27-10.02 3.54-14.6-3.1-15.33-1.62-.15-1.62-6.04.15-6.04h25.06c2.07 0 1.92 5.6.29 6.04Z"/><path fill="#1d5d9e" d="M360.99 292c0-1.92 3.38-4.96 5.01-4.96s5.02 3.03 5.02 4.96-3.38 4.96-5.02 4.96-5.01-3.03-5.01-4.96Zm29.1-11.08v7.93c0 4.08 2.97 4.78 6.41 5.25.41.06.12 2.27-.35 2.27h-19.01c-.47 0-.82-2.22-.35-2.27 3.15-.41 4.72-1.75 4.72-5.25v-25.42c0-3.85-1.98-4.96-4.72-5.72-.47-.12-.18-2.33.35-2.27 2.22.29 4.72.35 6.82.35 4.96 0 8.75-.35 11.66-.35 9.62 0 17.2 3.38 17.2 12.48 0 10.2-9.74 14.87-22.74 13Zm0-17.49v14.34c9.15 1.17 13.53-1.57 13.53-8.46 0-5.83-3.5-10.44-9.8-10.44-3.03 0-3.73 1.11-3.73 4.55Zm73.01 33.12c-4.32 1.17-9.74 1.4-13.7-3.67l-8.81-11.31c-2.62-3.44-5.13-3.79-8.98-3.85v11.14c0 4.08 2.97 4.78 6.41 5.25.41.06.12 2.27-.35 2.27h-19.01c-.47 0-.82-2.22-.35-2.27 3.15-.41 4.72-1.75 4.72-5.25v-25.42c0-3.85-1.98-4.96-4.72-5.72-.47-.12-.18-2.33.35-2.27 2.22.29 4.72.35 6.82.35 4.96 0 9.5-.35 12.42-.35 9.62 0 15.16 3.85 15.16 10.79 0 6.47-5.07 9.8-10.73 10.09v.29c2.68 0 4.72 1.11 7.46 4.49l8.16 10.38c2.1 2.57 4.14 3.27 5.13 3.27.47 0 .29 1.75 0 1.81Zm-18.95-28.63c0-6.12-3.56-9.04-8.46-9.04-3.27 0-4.08 1.34-4.08 4.55v11.31h1.46c8.57 0 11.08-1.46 11.08-6.82Zm21.74 26.06c3.32-.87 5.89-1.4 5.89-5.72v-25.48c0-3.5-2.33-4.43-4.78-5.13-.47-.12-.12-2.27.23-2.22 4.2.64 13.35.35 15.69.35 5.31 0 8.98-.23 14.05-.35 1.46 0 1.52.93 1.22 2.33l-1.34 5.6c-.18.87-1.69.87-1.92 0-.99-3.03-2.57-4.26-9.68-4.26-3.61 0-4.9 1.05-4.9 3.79v9.21c0 1.52.76 1.81 1.92 1.81h1.52c4.02 0 8.4-.64 10.5-2.33.64-.53 1.98-.41 1.4.87l-3.15 7.35c-.52 1.17-1.52 1.05-2.16.12-1.28-1.92-4.14-2.74-7-2.74h-1.11c-1.17 0-1.92.29-1.92 1.81v9.27c0 3.27 1.17 4.66 5.72 4.66 7.76 0 12.07-4.37 13.35-6.24.35-.47 2.22 0 2.22.87 0 2.51-2.68 9.04-6.53 8.92-3.97-.18-6.36-.35-11.08-.35-5.31 0-12.6-.18-17.78.35-.58.06-.82-2.39-.35-2.51Zm41.63-1.34.64-2.39c1.81-6.82 4.02 2.86 13.65 2.86 4.61 0 6.24-2.22 6.24-5.19 0-2.22-1.05-3.15-5.83-6.24l-4.2-2.92c-6.88-4.55-9.85-6.82-9.85-11.72 0-7.58 7.58-12.42 14.52-12.42 4.37 0 10.26 1.98 9.56 3.97l-.76 2.33c-2.1 6.36-3.38-2.04-11.37-2.04-3.61 0-5.6 1.75-5.6 4.66 0 2.74 1.63 4.08 5.48 6.53l4.96 3.32c6.59 4.26 9.27 6.82 9.27 11.31 0 7.52-7.23 12.6-15.05 12.6-4.72 0-12.42-1.92-11.66-4.66Zm33.18 0 .64-2.39c1.81-6.82 4.02 2.86 13.65 2.86 4.61 0 6.24-2.22 6.24-5.19 0-2.22-1.05-3.15-5.83-6.24l-4.2-2.92c-6.88-4.55-9.85-6.82-9.85-11.72 0-7.58 7.58-12.42 14.52-12.42 4.37 0 10.26 1.98 9.56 3.97l-.76 2.33c-2.1 6.36-3.38-2.04-11.37-2.04-3.61 0-5.6 1.75-5.6 4.66 0 2.74 1.63 4.08 5.48 6.53l4.96 3.32c6.59 4.26 9.27 6.82 9.27 11.31 0 7.52-7.23 12.6-15.05 12.6-4.72 0-12.42-1.92-11.66-4.66Z"/></svg>